<svg width="25" height="25" viewBox="0 0 25 25" fill="none" xmlns="http://www.w3.org/2000/svg">
<g clip-path="url(#clip0_15132_84920)">
<path d="M20.8036 12.5769C20.8036 13.0192 20.5911 13.0745 20.0599 13.0745C19.4756 13.0745 19.3694 12.9639 19.3163 12.5216C19.21 11.3606 18.4664 10.3654 17.1915 10.3101C16.8197 10.2548 16.7135 10.1442 16.7135 9.59135C16.7135 9.09375 16.7666 8.8726 17.1384 8.8726C19.2631 8.92788 20.8036 10.7524 20.8036 12.5769ZM23.9375 12.5769C23.9375 9.14904 21.7066 5.5 16.501 5.5H6.24928C6.03681 5.5 5.87745 5.61058 5.87745 5.83173C5.87745 5.94231 5.93057 6.05288 6.03681 6.10817C6.40863 6.4399 6.93981 6.77163 7.68346 7.15865C8.37399 7.54567 8.95829 7.76683 9.48946 7.98798C9.70193 8.09856 9.80817 8.20913 9.80817 8.31971C9.80817 8.48558 9.70193 8.65144 9.43635 8.65144H1.30932C1.04374 8.59615 0.9375 8.76202 0.9375 8.92788C0.9375 9.09375 0.990618 9.20433 1.09685 9.3149C1.73427 10.0337 2.79662 10.9183 4.33704 11.9135C5.66498 12.7981 7.36475 13.738 8.6927 14.4014C8.90517 14.512 9.0114 14.6226 9.0114 14.7885C9.0114 14.9543 8.90517 15.0649 8.63958 15.0649H4.86822C4.65574 15.0649 4.54951 15.1755 4.54951 15.3413C4.54951 15.4519 4.60263 15.5625 4.70886 15.6731C5.55875 16.5024 6.93981 17.3317 8.74581 18.1611C11.1892 19.2115 13.6327 19.875 16.3948 19.875C21.6534 19.875 23.9375 15.7837 23.9375 12.5769ZM17.0853 17.4976C14.5357 17.4976 12.3578 15.3413 12.3578 12.5769C12.3578 9.92308 14.4825 7.76683 17.0853 7.76683C19.7412 7.76683 21.8128 9.92308 21.8128 12.5769C21.8128 15.2861 19.7412 17.4976 17.0853 17.4976Z" fill="#FF642D"/>
</g>
<defs>
<clipPath id="clip0_15132_84920">
<rect width="24" height="24" fill="white" transform="translate(0.9375 0.5)"/>
</clipPath>
</defs>
</svg>
